<svg width="99" height="19" viewBox="0 0 99 19" fill="none" xmlns="http://www.w3.org/2000/svg">
<rect width="18.3333" height="18.3333" fill="#00B67A"/>
<path d="M9.17345 3.27368L10.6435 7.79798H15.4006L9.17345 12.3223L12.1199 11.6219L13.022 15.1184L9.17345 12.3223L5.32485 15.1184L6.79488 10.5941L2.94629 7.79798H7.70341L9.17345 3.27368Z" fill="white"/>
<rect x="40.3335" width="18.3333" height="18.3333" fill="#00B67A"/>
<path d="M49.5069 3.27368L50.977 7.79798H55.7341L49.5069 12.3223L52.4534 11.6219L53.3555 15.1184L49.5069 12.3223L45.6583 15.1184L47.1284 10.5941L43.2798 7.79798H48.0369L49.5069 3.27368Z" fill="white"/>
<rect x="20.1665" width="18.3333" height="18.3333" fill="#00B67A"/>
<path d="M29.3399 3.27368L30.81 7.79798H35.5671L29.3399 12.3223L32.2864 11.6219L33.1885 15.1184L29.3399 12.3223L25.4914 15.1184L26.9614 10.5941L23.1128 7.79798H27.8699L29.3399 3.27368Z" fill="white"/>
<rect x="60.5" width="18.3333" height="18.3333" fill="#00B67A"/>
<path d="M69.6734 3.27368L71.1435 7.79798H75.9006L69.6734 12.3223L72.6199 11.6219L73.522 15.1184L69.6734 12.3223L65.8249 15.1184L67.2949 10.5941L63.4463 7.79798H68.2034L69.6734 3.27368Z" fill="white"/>
<rect x="80.6665" width="18.3333" height="18.3333" fill="#00B67A"/>
<path d="M89.8399 3.27368L91.31 7.79798H96.0671L89.8399 12.3223L92.7864 11.6219L93.6885 15.1184L89.8399 12.3223L85.9914 15.1184L87.4614 10.5941L83.6128 7.79798H88.3699L89.8399 3.27368Z" fill="white"/>
</svg>
