<svg width="99" height="19" viewBox="0 0 99 19" fill="none" xmlns="http://www.w3.org/2000/svg">
<rect width="18.3333" height="18.3333" fill="#73CF10"/>
<path d="M9.17345 3.27344L10.6435 7.79773H15.4006L9.17345 12.322L12.1199 11.6217L13.022 15.1182L9.17345 12.322L5.32485 15.1182L6.79488 10.5939L2.94629 7.79773H7.70341L9.17345 3.27344Z" fill="white"/>
<rect x="40.334" width="18.3333" height="18.3333" fill="#73CF10"/>
<path d="M49.5074 3.27344L50.9775 7.79773H55.7346L49.5074 12.322L52.4539 11.6217L53.356 15.1182L49.5074 12.322L45.6588 15.1182L47.1289 10.5939L43.2803 7.79773H48.0374L49.5074 3.27344Z" fill="white"/>
<rect x="20.166" width="18.3333" height="18.3333" fill="#73CF10"/>
<path d="M29.3395 3.27344L30.8095 7.79773H35.5666L29.3395 12.322L32.2859 11.6217L33.1881 15.1182L29.3395 12.322L25.4909 15.1182L26.9609 10.5939L23.1123 7.79773H27.8694L29.3395 3.27344Z" fill="white"/>
<rect x="60.5" width="18.3333" height="18.3333" fill="#73CF10"/>
<path d="M69.6734 3.27344L71.1435 7.79773H75.9006L69.6734 12.322L72.6199 11.6217L73.522 15.1182L69.6734 12.322L65.8249 15.1182L67.2949 10.5939L63.4463 7.79773H68.2034L69.6734 3.27344Z" fill="white"/>
<rect x="80.666" width="18.3333" height="18.3333" fill="#DCDCE5"/>
<path d="M89.8395 3.27344L91.3095 7.79773H96.0666L89.8395 12.322L92.7859 11.6217L93.6881 15.1182L89.8395 12.322L85.9909 15.1182L87.4609 10.5939L83.6123 7.79773H88.3694L89.8395 3.27344Z" fill="white"/>
</svg>
