<svg width="164" height="19" viewBox="0 0 164 19" fill="none" xmlns="http://www.w3.org/2000/svg">
<path fill-rule="evenodd" clip-rule="evenodd" d="M36.1843 0H27V17.7091H32.5493V11.1372H35.5743C37.8021 11.1372 39.4587 10.6345 40.5443 9.62784C41.6299 8.62089 42.1727 7.22365 42.1727 5.43582C42.1727 3.69654 41.6742 2.35538 40.6784 1.41323C39.6826 0.471076 38.1842 0 36.1843 0ZM33.9031 7.55H32.5493V3.59948H34.1229C35.155 3.59948 35.859 3.79273 36.2325 4.17923C36.6065 4.56603 36.7938 5.03711 36.7938 5.59305C36.7938 6.16467 36.5784 6.634 36.1474 6.99958C35.7167 7.36721 34.9684 7.55 33.9031 7.55ZM43.7835 4.88018H48.4304V6.98244C48.8773 6.07225 49.3391 5.44658 49.8144 5.10425C50.2903 4.7619 50.8777 4.59016 51.5769 4.59016C52.3089 4.59016 53.1098 4.81567 53.9798 5.26698L52.443 8.77026C51.8577 8.52877 51.3941 8.40787 51.0526 8.40787C50.4021 8.40787 49.898 8.67349 49.5403 9.20531C49.0281 9.95391 48.772 11.3552 48.772 13.4092V17.7097H43.7835V4.88018ZM55.2127 6.49277C53.8792 7.76185 53.2126 9.37443 53.2126 11.3311C53.2126 13.4331 54.0009 15.1323 55.5783 16.429C56.8631 17.4766 58.5461 18 60.6275 18C62.9615 18 64.7891 17.3699 66.1103 16.109C67.4318 14.8495 68.0919 13.232 68.0919 11.2594C68.0919 9.50347 67.5594 8.02544 66.4941 6.82551C65.1691 5.33527 63.2097 4.59045 60.6161 4.59045C58.3471 4.59045 56.5459 5.22513 55.2127 6.49277ZM58.1887 11.3191C58.1887 12.4627 58.4226 13.3084 58.8902 13.8559C59.3576 14.404 59.9453 14.6774 60.6527 14.6774C61.368 14.6774 61.9554 14.4077 62.4149 13.8684C62.8743 13.3287 63.1044 12.4627 63.1044 11.271C63.1044 10.1591 62.8726 9.33229 62.4092 8.78799C61.9458 8.24513 61.3724 7.97284 60.6891 7.97284C59.9659 7.97284 59.3685 8.24891 58.8967 8.80078C58.4246 9.35235 58.1887 10.1916 58.1887 11.3191ZM74.1545 4.88018H69.5202V17.7091H74.4966V11.162C74.4966 10.1876 74.6794 9.48691 75.0473 9.06C75.4141 8.6331 75.8839 8.41979 76.4548 8.41979C76.8051 8.41979 77.1112 8.51889 77.3725 8.71534C77.6337 8.91383 77.817 9.17304 77.9232 9.49504C77.9881 9.69643 78.0213 10.0795 78.0213 10.6429V17.7093H82.9974V11.0896C82.9974 10.1631 83.176 9.49097 83.5319 9.0722C83.8885 8.65372 84.3585 8.4442 84.9424 8.4442C85.4364 8.4442 85.8495 8.66594 86.1814 9.10853C86.4088 9.39013 86.5229 9.82168 86.5229 10.4012V17.7093H91.4988V9.65197C91.4988 7.91239 91.1085 6.634 90.3298 5.81594C89.5494 4.99962 88.4661 4.59016 87.0777 4.59016C86.1362 4.59016 85.344 4.74185 84.7012 5.04292C84.0604 5.34573 83.3504 5.91533 82.571 6.75286C82.187 6.03623 81.6961 5.49657 81.0926 5.13417C80.4899 4.77179 79.6711 4.59016 78.6377 4.59016C77.6765 4.59016 76.8565 4.75522 76.1764 5.08564C75.4963 5.41578 74.8224 5.9717 74.1545 6.75286V4.88018ZM92.8531 11.3311C92.8531 9.37443 93.52 7.76185 94.8535 6.49277C96.1871 5.22513 97.9882 4.59045 100.257 4.59045C102.851 4.59045 104.81 5.33527 106.135 6.82551C107.2 8.02544 107.733 9.50347 107.733 11.2594C107.733 13.232 107.072 14.8495 105.751 16.109C104.429 17.3699 102.602 18 100.269 18C98.1872 18 96.5036 17.4766 95.2189 16.429C93.6417 15.1323 92.8531 13.4331 92.8531 11.3311ZM98.5316 13.8559C98.0628 13.3084 97.8295 12.4627 97.8295 11.3191C97.8295 10.1916 98.0657 9.35264 98.5371 8.80078C99.0087 8.24891 99.6063 7.97284 100.33 7.97284C101.013 7.97284 101.586 8.24513 102.05 8.78799C102.513 9.33229 102.746 10.1591 102.746 11.271C102.746 12.4627 102.515 13.3287 102.055 13.8684C101.596 14.4077 101.009 14.6774 100.293 14.6774C99.5861 14.6774 98.9981 14.404 98.5316 13.8559ZM109.49 0H114.649L121.382 9.79785V0H126.589V17.7093H121.382L114.686 7.98562V17.7093H109.49V0ZM128.713 8.54068L133.458 9.03617C133.652 8.47995 133.91 8.10186 134.227 7.90047C134.632 7.64271 135.243 7.51396 136.055 7.51396C136.689 7.51396 137.132 7.63486 137.384 7.87636C137.637 8.11813 137.763 8.54068 137.763 9.14486C137.145 9.38636 136.559 9.58223 136.006 9.73044C135.453 9.8801 134.246 10.1399 132.384 10.5101C130.832 10.8158 129.766 11.2831 129.188 11.9114C128.612 12.5395 128.323 13.3403 128.323 14.315C128.323 15.3542 128.723 16.2281 129.523 16.9366C130.325 17.6454 131.498 18 133.043 18C134.205 18 135.226 17.8227 136.104 17.4682C136.746 17.2025 137.392 16.7599 138.043 16.1398C138.099 16.5103 138.158 16.782 138.215 16.9543C138.271 17.1284 138.393 17.3801 138.58 17.71H143.239C142.979 17.1788 142.809 16.7422 142.734 16.3988C142.655 16.0576 142.617 15.5839 142.617 14.9797V9.31428C142.617 8.71011 142.496 8.0763 142.251 7.41109C142.007 6.74763 141.674 6.23355 141.251 5.87115C140.65 5.34749 139.898 5.0037 138.995 4.83863C138.092 4.67356 136.897 4.59045 135.409 4.59045C134.482 4.59045 133.62 4.65903 132.824 4.7959C132.027 4.93278 131.4 5.12604 130.945 5.37596C130.311 5.72236 129.824 6.13038 129.488 6.60232C129.149 7.07253 128.891 7.71942 128.713 8.54068ZM137.763 11.6214C137.062 11.8681 136.35 12.0816 135.628 12.2611C134.62 12.5272 133.983 12.7888 133.714 13.0465C133.437 13.3128 133.299 13.6141 133.299 13.9524C133.299 14.3395 133.435 14.6553 133.708 14.9004C133.98 15.1473 134.381 15.2697 134.909 15.2697C135.463 15.2697 135.977 15.1363 136.451 14.8707C136.929 14.6054 137.265 14.2814 137.465 13.8987C137.664 13.5162 137.763 13.0186 137.763 12.4063V11.6214ZM148.295 4.88018H143.13L148.516 17.7093H152.92L158.424 4.88018H153.415L150.808 13.0105L148.295 4.88018ZM159.036 0H164V3.34606H159.036V0ZM164 4.88018H159.036V17.7093H164V4.88018Z" fill="white"/>
<path d="M0 0.364389L7.78479 6.90909L21.9958 0.00560611L22 0L0 0.364389Z" fill="#FF6C33"/>
<path d="M21.9941 0L8.80078 9.17828L11.679 19L22.0008 0H21.9941Z" fill="white"/>
</svg>
