<svg height="16.575" viewBox="0 0 24.31 16.575" width="24.31" xmlns="http://www.w3.org/2000/svg">
  <g data-name="noun_sign in_647445" id="noun_sign_in_647445" transform="translate(0)">
    <g data-name="Сгруппировать 294" id="Сгруппировать_294" transform="translate(0)">
      <path d="M30.31,973.189a.829.829,0,0,0-1.657,0v14.917a.829.829,0,0,0,1.657,0Zm-3.315,7.459a.929.929,0,0,0-.224-.57l-4.42-4.7a.949.949,0,0,0-1.209-.069.863.863,0,0,0,.009,1.209l3.108,3.3H6.829a.829.829,0,0,0,0,1.658H24.258l-3.108,3.3a.913.913,0,0,0-.009,1.209.937.937,0,0,0,1.209-.069l4.42-4.7A.8.8,0,0,0,26.995,980.647Z" data-name="Контур 2368" fill="#fff" id="Контур_2368" transform="translate(-6 -972.36)"/>
    </g>
  </g>
</svg>
