<svg width="1781" height="437" viewBox="0 0 1781 437" fill="none" xmlns="http://www.w3.org/2000/svg">
<path d="M467.855 154.864H647.936V188.388H577.031V377.369H538.166V188.388H467.558L467.855 154.864ZM640.222 216.275H673.449V247.426H674.043C675.23 242.975 677.306 238.822 680.273 234.669C683.24 230.515 686.8 226.658 691.25 223.395C695.403 219.835 700.15 217.165 705.49 215.088C710.534 213.011 715.874 211.825 721.214 211.825C725.367 211.825 728.334 212.121 729.817 212.121C731.301 212.418 733.081 212.715 734.564 212.715V246.832C732.191 246.239 729.521 245.942 726.851 245.646C724.181 245.349 721.807 245.052 719.137 245.052C713.204 245.052 707.567 246.239 702.227 248.612C696.887 250.986 692.437 254.546 688.283 258.996C684.426 263.743 681.163 269.379 678.79 276.203C676.416 283.026 675.23 291.037 675.23 299.937V376.479H639.629L640.222 216.275ZM897.735 377.369H862.727V354.821H862.134C857.684 363.128 851.157 369.358 842.553 374.402C833.95 379.445 825.05 381.819 816.149 381.819C795.086 381.819 779.659 376.775 770.165 366.095C760.671 355.711 755.925 339.691 755.925 318.627V216.275H791.525V315.067C791.525 329.308 794.196 339.394 799.832 345.031C805.173 350.965 812.886 353.931 822.676 353.931C830.093 353.931 836.323 352.745 841.367 350.371C846.41 347.998 850.564 345.031 853.53 341.174C856.794 337.318 858.87 332.571 860.354 327.231C861.837 321.891 862.431 315.957 862.431 309.727V216.275H898.031V377.369H897.735ZM958.256 325.747C959.443 336.131 963.299 343.251 970.123 347.701C976.946 351.855 985.253 353.931 994.747 353.931C998.011 353.931 1001.87 353.635 1006.02 353.041C1010.17 352.448 1014.33 351.558 1017.89 350.075C1021.74 348.591 1024.71 346.515 1027.08 343.548C1029.46 340.581 1030.64 337.021 1030.35 332.571C1030.05 328.121 1028.57 324.264 1025.3 321.297C1022.04 318.331 1018.18 316.254 1013.44 314.177C1008.69 312.397 1003.05 310.914 996.821 309.727C990.593 308.54 984.363 307.057 977.836 305.574C971.31 304.09 964.783 302.31 958.553 300.234C952.323 298.157 946.982 295.487 941.939 291.63C937.192 288.07 933.039 283.62 930.369 277.983C927.402 272.346 925.919 265.819 925.919 257.512C925.919 248.612 927.995 241.492 932.445 235.559C936.599 229.625 942.236 224.878 948.762 221.318C955.289 217.758 962.706 215.088 970.716 213.605C978.727 212.121 986.44 211.528 993.56 211.528C1001.87 211.528 1009.88 212.418 1017.29 214.198C1024.71 215.978 1031.83 218.648 1037.76 222.802C1043.99 226.658 1049.04 231.999 1052.89 238.229C1057.05 244.459 1059.42 252.172 1060.61 261.073H1023.52C1021.74 252.469 1017.89 246.832 1011.95 243.866C1005.72 240.899 998.901 239.415 990.89 239.415C988.517 239.415 985.253 239.712 981.99 240.009C978.43 240.602 975.463 241.196 972.2 242.382C969.233 243.569 966.563 245.349 964.486 247.426C962.409 249.502 961.223 252.469 961.223 256.029C961.223 260.479 962.706 263.743 965.673 266.413C968.64 269.083 972.496 271.16 977.54 273.236C982.287 275.016 987.923 276.5 994.154 277.686C1000.38 278.873 1006.91 280.356 1013.44 281.84C1019.96 283.323 1026.19 285.103 1032.42 287.18C1038.65 289.257 1044.29 291.927 1049.04 295.783C1053.78 299.344 1057.94 303.794 1060.9 309.134C1063.87 314.474 1065.35 321.297 1065.35 329.011C1065.35 338.504 1063.28 346.515 1058.83 353.338C1054.38 359.865 1048.74 365.502 1041.92 369.655C1035.09 373.809 1027.08 376.775 1018.78 378.852C1010.17 380.632 1001.87 381.819 993.56 381.819C983.473 381.819 973.98 380.632 965.376 378.259C956.773 375.885 949.059 372.325 942.829 367.875C936.599 363.128 931.555 357.491 927.995 350.371C924.435 343.548 922.358 335.241 922.062 325.451H957.959V325.747H958.256ZM1075.44 216.275H1102.44V167.62H1138.04V215.978H1170.08V242.382H1138.04V328.418C1138.04 332.274 1138.34 335.241 1138.63 338.208C1138.93 340.878 1139.82 343.251 1140.71 345.031C1141.9 346.811 1143.68 348.295 1145.75 349.185C1148.13 350.075 1151.09 350.668 1155.25 350.668C1157.62 350.668 1160.29 350.668 1162.66 350.371C1165.04 350.075 1167.71 349.778 1170.08 349.185V376.775C1166.22 377.369 1162.37 377.665 1158.51 377.962C1154.65 378.555 1151.09 378.555 1146.94 378.555C1137.45 378.555 1130.03 377.665 1124.39 375.885C1118.76 374.105 1114.31 371.435 1111.04 368.172C1107.78 364.612 1105.7 360.458 1104.51 355.415C1103.33 350.371 1102.73 344.141 1102.44 337.614V242.679H1075.44V215.682V216.275ZM1195 216.275H1228.52V238.229H1229.12C1234.16 228.735 1240.98 222.208 1249.88 218.055C1258.79 213.902 1268.28 211.825 1278.96 211.825C1291.72 211.825 1302.69 213.902 1312.19 218.648C1321.68 223.098 1329.39 229.032 1335.62 237.042C1341.85 244.756 1346.6 253.952 1349.57 264.336C1352.53 274.72 1354.31 285.993 1354.31 297.563C1354.31 308.54 1352.83 318.924 1350.16 329.011C1347.19 339.098 1343.04 348.295 1337.4 356.008C1331.77 363.722 1324.65 369.952 1315.75 374.698C1306.85 379.445 1296.76 381.819 1284.89 381.819C1279.85 381.819 1274.51 381.225 1269.47 380.335C1264.42 379.445 1259.38 377.962 1254.63 375.885C1249.88 373.809 1245.43 371.138 1241.58 367.875C1237.42 364.612 1234.16 360.755 1231.49 356.601H1230.9V437H1195.3V216.275H1195ZM1319.31 296.97C1319.31 289.85 1318.42 282.73 1316.34 275.906C1314.56 269.083 1311.59 263.149 1307.74 257.809C1303.88 252.469 1299.13 248.316 1293.79 245.052C1288.16 241.789 1281.63 240.305 1274.51 240.305C1259.68 240.305 1248.4 245.349 1240.69 255.733C1233.27 266.116 1229.41 280.06 1229.41 297.267C1229.41 305.574 1230.3 312.99 1232.38 319.814C1234.46 326.637 1237.13 332.571 1241.28 337.614C1245.14 342.658 1249.89 346.515 1255.52 349.481C1261.16 352.448 1267.39 353.931 1274.81 353.931C1283.11 353.931 1289.64 352.151 1295.28 348.888C1300.91 345.625 1305.36 341.174 1309.22 336.131C1312.78 330.791 1315.45 324.857 1316.93 318.034C1318.42 310.914 1319.31 304.09 1319.31 296.97ZM1381.9 154.864H1417.51V188.388H1381.9V154.864ZM1381.9 216.275H1417.51V377.369H1381.9V216.275ZM1449.25 154.864H1484.85V377.369H1449.25V154.864ZM1593.43 381.819C1580.68 381.819 1569.11 379.742 1559.02 375.292C1548.93 370.842 1540.63 365.205 1533.5 357.788C1526.68 350.371 1521.34 341.174 1517.78 330.791C1514.22 320.407 1512.14 308.837 1512.14 296.673C1512.14 284.51 1513.92 273.236 1517.78 262.853C1521.34 252.469 1526.68 243.569 1533.5 235.855C1540.33 228.439 1548.93 222.505 1559.02 218.352C1569.11 214.198 1580.68 211.825 1593.43 211.825C1606.19 211.825 1617.76 213.902 1627.85 218.352C1637.93 222.505 1646.24 228.439 1653.36 235.855C1660.18 243.272 1665.52 252.469 1669.08 262.853C1672.64 273.236 1674.72 284.51 1674.72 296.673C1674.72 309.134 1672.94 320.407 1669.08 330.791C1665.23 341.174 1660.18 350.075 1653.36 357.788C1646.54 365.205 1637.93 371.138 1627.85 375.292C1617.76 379.445 1606.49 381.819 1593.43 381.819ZM1593.43 353.635C1601.15 353.635 1608.27 351.855 1613.9 348.591C1619.84 345.328 1624.29 340.878 1628.14 335.538C1632 330.198 1634.67 323.967 1636.45 317.441C1638.23 310.617 1639.12 303.794 1639.12 296.673C1639.12 289.85 1638.23 283.026 1636.45 276.203C1634.67 269.379 1632 263.446 1628.14 258.106C1624.29 252.766 1619.54 248.612 1613.9 245.349C1607.97 242.086 1601.15 240.305 1593.43 240.305C1585.72 240.305 1578.6 242.086 1572.96 245.349C1567.03 248.612 1562.58 253.062 1558.72 258.106C1554.87 263.446 1552.2 269.379 1550.42 276.203C1548.64 283.026 1547.75 289.85 1547.75 296.673C1547.75 303.794 1548.64 310.617 1550.42 317.441C1552.2 324.264 1554.87 330.198 1558.72 335.538C1562.58 340.878 1567.33 345.328 1572.96 348.591C1578.9 352.151 1585.72 353.635 1593.43 353.635ZM1685.4 216.275H1712.4V167.62H1748V215.978H1780.04V242.382H1748V328.418C1748 332.274 1748.3 335.241 1748.59 338.208C1748.89 340.878 1749.78 343.251 1750.67 345.031C1751.86 346.811 1753.64 348.295 1755.71 349.185C1758.09 350.075 1761.05 350.668 1765.21 350.668C1767.58 350.668 1770.25 350.668 1772.62 350.371C1775 350.075 1777.67 349.778 1780.04 349.185V376.775C1776.18 377.369 1772.33 377.665 1768.47 377.962C1764.61 378.555 1761.05 378.555 1756.9 378.555C1747.41 378.555 1739.99 377.665 1734.35 375.885C1728.72 374.105 1724.27 371.435 1721 368.172C1717.74 364.612 1715.66 360.458 1714.48 355.415C1713.29 350.371 1712.7 344.141 1712.4 337.614V242.679H1685.4V215.682V216.275Z" fill="#191919"/>
<path d="M426.32 154.864H263.447L213.309 0L162.874 154.864L0 154.567L131.724 250.392L81.2885 405.256L213.012 309.43L344.734 405.256L294.596 250.392L426.32 154.864Z" fill="#00B67A"/>
<path d="M305.871 285.4L294.598 250.392L213.309 309.43L305.871 285.4Z" fill="#005128"/>
</svg>
