<svg width="32" height="32" viewBox="0 0 32 32" fill="none" xmlns="http://www.w3.org/2000/svg">
<circle cx="16" cy="16" r="16" fill="white"/>
<path d="M25.5879 11.3471C25.3574 10.4294 24.6819 9.70593 23.8252 9.4588C22.2602 9 15.9998 9 15.9998 9C15.9998 9 9.73961 9 8.17452 9.44131C7.33438 9.68828 6.64239 10.4295 6.41183 11.3471C6 13.0234 6 16.5 6 16.5C6 16.5 6 19.994 6.41183 21.6529C6.64254 22.5705 7.3179 23.2941 8.17467 23.5412C9.75609 24 16 24 16 24C16 24 22.2602 24 23.8252 23.5587C24.682 23.3117 25.3574 22.5881 25.5881 21.6705C25.9999 19.994 25.9999 16.5177 25.9999 16.5177C25.9999 16.5177 26.0164 13.0234 25.5879 11.3471Z" fill="#C4302B"/>
<path d="M14 20L19 17L14 14V20Z" fill="white"/>
</svg>
