<svg width="170" height="20" viewBox="0 0 170 20" fill="none" xmlns="http://www.w3.org/2000/svg">
<path fill-rule="evenodd" clip-rule="evenodd" d="M38.108 0H28.6309V18.4858H34.3571V11.6257H37.4786C39.7774 11.6257 41.4869 11.1009 42.607 10.0501C43.7272 8.999 44.2874 7.54048 44.2874 5.67424C44.2874 3.85866 43.7729 2.45869 42.7454 1.47521C41.7178 0.491737 40.1717 0 38.108 0ZM35.7541 7.88114H34.3571V3.75735H35.9809C37.0459 3.75735 37.7723 3.95907 38.1578 4.36253C38.5437 4.7663 38.7369 5.25804 38.7369 5.83835C38.7369 6.43505 38.5147 6.92496 38.07 7.30658C37.6255 7.69033 36.8534 7.88114 35.7541 7.88114ZM45.9495 5.09422H50.7445V7.28869C51.2057 6.33858 51.6823 5.68546 52.1727 5.32812C52.6638 4.97076 53.2699 4.79148 53.9914 4.79148C54.7468 4.79148 55.5732 5.02688 56.4709 5.49799L54.8851 9.15492C54.2812 8.90284 53.8028 8.77664 53.4504 8.77664C52.7791 8.77664 52.259 9.0539 51.8899 9.60905C51.3613 10.3905 51.0971 11.8532 51.0971 13.9974V18.4864H45.9495V5.09422ZM57.7432 6.77754C56.3671 8.10228 55.6793 9.78559 55.6793 11.8281C55.6793 14.0223 56.4928 15.796 58.1204 17.1496C59.4462 18.2431 61.1829 18.7895 63.3306 18.7895C65.7391 18.7895 67.625 18.1318 68.9883 16.8155C70.3519 15.5008 71.033 13.8124 71.033 11.7532C71.033 9.92029 70.4836 8.37743 69.3843 7.12487C68.017 5.56928 65.9952 4.79179 63.3188 4.79179C60.9775 4.79179 59.1189 5.4543 57.7432 6.77754ZM60.8141 11.8156C60.8141 13.0094 61.0554 13.8921 61.5379 14.4637C62.0202 15.0358 62.6267 15.3212 63.3566 15.3212C64.0947 15.3212 64.7009 15.0396 65.175 14.4767C65.6491 13.9133 65.8865 13.0094 65.8865 11.7653C65.8865 10.6046 65.6473 9.74161 65.1692 9.17343C64.6909 8.60676 64.0992 8.32252 63.3942 8.32252C62.6479 8.32252 62.0315 8.61071 61.5446 9.18677C61.0575 9.76254 60.8141 10.6386 60.8141 11.8156ZM77.289 5.09422H72.5069V18.4858H77.6419V11.6516C77.6419 10.6344 77.8306 9.903 78.2102 9.45737C78.5887 9.01175 79.0735 8.78908 79.6626 8.78908C80.024 8.78908 80.3399 8.89252 80.6096 9.09759C80.8791 9.30479 81.0682 9.57537 81.1779 9.91149C81.2448 10.1217 81.279 10.5215 81.279 11.1097V18.4861H86.4138V11.576C86.4138 10.6089 86.5981 9.90724 86.9654 9.4701C87.3333 9.03327 87.8183 8.81456 88.4208 8.81456C88.9306 8.81456 89.3569 9.04602 89.6993 9.50803C89.934 9.80197 90.0517 10.2525 90.0517 10.8573V18.4861H95.1863V10.0753C95.1863 8.25943 94.7836 6.92496 93.98 6.07103C93.1747 5.21891 92.0569 4.79148 90.6243 4.79148C89.6527 4.79148 88.8353 4.94983 88.172 5.2641C87.5107 5.5802 86.7781 6.17478 85.9739 7.04904C85.5776 6.30097 85.0711 5.73764 84.4483 5.35935C83.8264 4.98108 82.9815 4.79148 81.9151 4.79148C80.9233 4.79148 80.0771 4.96379 79.3753 5.3087C78.6735 5.65331 77.9781 6.23362 77.289 7.04904V5.09422ZM96.5838 11.8281C96.5838 9.78559 97.2719 8.10228 98.648 6.77754C100.024 5.4543 101.883 4.79179 104.224 4.79179C106.9 4.79179 108.922 5.56928 110.289 7.12487C111.388 8.37743 111.938 9.92029 111.938 11.7532C111.938 13.8124 111.256 15.5008 109.893 16.8155C108.529 18.1318 106.644 18.7895 104.236 18.7895C102.088 18.7895 100.351 18.2431 99.025 17.1496C97.3975 15.796 96.5838 14.0223 96.5838 11.8281ZM102.443 14.4637C101.96 13.8921 101.719 13.0094 101.719 11.8156C101.719 10.6386 101.963 9.76284 102.449 9.18677C102.936 8.61071 103.552 8.32252 104.299 8.32252C105.004 8.32252 105.595 8.60676 106.074 9.17343C106.552 9.74161 106.792 10.6046 106.792 11.7653C106.792 13.0094 106.554 13.9133 106.08 14.4767C105.605 15.0396 105 15.3212 104.261 15.3212C103.531 15.3212 102.925 15.0358 102.443 14.4637ZM113.751 0H119.074L126.023 10.2276V0H131.396V18.4861H126.023L119.113 8.33586V18.4861H113.751V0ZM133.587 8.91527L138.483 9.4325C138.684 8.85188 138.949 8.45721 139.276 8.24698C139.695 7.97791 140.325 7.84352 141.164 7.84352C141.818 7.84352 142.275 7.96972 142.535 8.22181C142.796 8.47419 142.926 8.91527 142.926 9.54595C142.288 9.79804 141.683 10.0025 141.113 10.1572C140.542 10.3134 139.296 10.5846 137.375 10.9711C135.773 11.2902 134.674 11.778 134.077 12.4338C133.482 13.0895 133.184 13.9254 133.184 14.9429C133.184 16.0277 133.597 16.9399 134.423 17.6794C135.25 18.4193 136.461 18.7895 138.055 18.7895C139.254 18.7895 140.308 18.6044 141.214 18.2343C141.876 17.957 142.543 17.495 143.215 16.8477C143.273 17.2344 143.333 17.5181 143.392 17.698C143.45 17.8797 143.575 18.1424 143.769 18.4868H148.576C148.308 17.9322 148.133 17.4765 148.055 17.118C147.974 16.7619 147.934 16.2674 147.934 15.6367V9.7228C147.934 9.09213 147.809 8.43052 147.556 7.73614C147.305 7.04358 146.961 6.50695 146.525 6.12866C145.905 5.58202 145.128 5.22316 144.197 5.05085C143.266 4.87854 142.033 4.79179 140.497 4.79179C139.54 4.79179 138.65 4.86338 137.829 5.00625C137.006 5.14913 136.36 5.35087 135.891 5.61175C135.236 5.97334 134.734 6.39925 134.387 6.8919C134.037 7.38273 133.771 8.05799 133.587 8.91527ZM142.926 12.1311C142.202 12.3887 141.468 12.6115 140.723 12.7988C139.682 13.0766 139.025 13.3497 138.747 13.6187C138.462 13.8967 138.319 14.2112 138.319 14.5644C138.319 14.9684 138.46 15.2981 138.742 15.5539C139.022 15.8117 139.435 15.9394 139.981 15.9394C140.552 15.9394 141.083 15.8002 141.572 15.5229C142.065 15.246 142.412 14.9077 142.618 14.5083C142.824 14.109 142.926 13.5896 142.926 12.9504V12.1311ZM153.793 5.09422H148.463L154.022 18.4861H158.566L164.246 5.09422H159.077L156.387 13.5811L153.793 5.09422ZM164.877 0H169.999V3.49282H164.877V0ZM169.999 5.09422H164.877V18.4861H169.999V5.09422Z" fill="#182238"/>
<path d="M0 0.377511L7.91516 7.15789L22.3641 0.00580799L22.3684 0L0 0.377511Z" fill="#FF6C33"/>
<path d="M22.3616 0L8.94727 9.5088L11.8737 19.6842L22.3683 0H22.3616Z" fill="#182238"/>
</svg>
